<?xml version="1.0" encoding="UTF-8" standalone="no"?>
<svg width="580px" height="128px" viewBox="0 0 580 128" version="1.1" xmlns="http://www.w3.org/2000/svg" xmlns:xlink="http://www.w3.org/1999/xlink" xmlns:sketch="http://www.bohemiancoding.com/sketch/ns">
    <!-- Generator: Sketch 3.2.2 (9983) - http://www.bohemiancoding.com/sketch -->
    <title>Logo</title>
    <desc>Created with Sketch.</desc>
    <defs>
        <linearGradient x1="63.7206312%" y1="4.26878212%" x2="44.8478941%" y2="92.829284%" id="linearGradient-1">
            <stop stop-color="#BBEB75" offset="0%"></stop>
            <stop stop-color="#89B44C" offset="100%"></stop>
        </linearGradient>
        <linearGradient x1="58.71016%" y1="9.94282084%" x2="50%" y2="93.5408725%" id="linearGradient-2">
            <stop stop-color="#87B74A" offset="0%"></stop>
            <stop stop-color="#86B645" offset="100%"></stop>
        </linearGradient>
        <linearGradient x1="56.7614567%" y1="16.2803655%" x2="53.1452395%" y2="86.2296635%" id="linearGradient-3">
            <stop stop-color="#ACDF63" offset="0%"></stop>
            <stop stop-color="#ACDF62" offset="100%"></stop>
        </linearGradient>
        <linearGradient x1="57.9139713%" y1="12.4260486%" x2="48.2682937%" y2="93.0986056%" id="linearGradient-4">
            <stop stop-color="#A8D961" offset="0%"></stop>
            <stop stop-color="#56762B" offset="100%"></stop>
        </linearGradient>
        <linearGradient x1="60.809482%" y1="10.3274713%" x2="53.1048119%" y2="93.6748199%" id="linearGradient-5">
            <stop stop-color="#587B2A" offset="0%"></stop>
            <stop stop-color="#5E7F33" offset="100%"></stop>
        </linearGradient>
        <linearGradient x1="87.4321345%" y1="-6.18672149%" x2="30.9145259%" y2="100%" id="linearGradient-6">
            <stop stop-color="#487ABD" offset="0%"></stop>
            <stop stop-color="#55A4D5" offset="100%"></stop>
        </linearGradient>
        <linearGradient x1="50%" y1="0%" x2="50%" y2="95.4968007%" id="linearGradient-7">
            <stop stop-color="#9BCC57" offset="0%"></stop>
            <stop stop-color="#85B55C" offset="100%"></stop>
        </linearGradient>
        <linearGradient x1="50%" y1="0%" x2="50%" y2="100%" id="linearGradient-8">
            <stop stop-color="#BCEE75" offset="0%"></stop>
            <stop stop-color="#B9ED70" offset="100%"></stop>
        </linearGradient>
        <linearGradient x1="50%" y1="0%" x2="50%" y2="100%" id="linearGradient-9">
            <stop stop-color="#5290BD" offset="0%"></stop>
            <stop stop-color="#4A7FBF" offset="100%"></stop>
        </linearGradient>
        <linearGradient x1="47.2080362%" y1="-17.2311952%" x2="47.208035%" y2="100%" id="linearGradient-10">
            <stop stop-color="#000000" stop-opacity="0.417147871" offset="0%"></stop>
            <stop stop-color="#000000" stop-opacity="0" offset="100%"></stop>
        </linearGradient>
        <linearGradient x1="50%" y1="0%" x2="50%" y2="100%" id="linearGradient-11">
            <stop stop-color="#000000" stop-opacity="0.453521286" offset="0%"></stop>
            <stop stop-color="#000000" stop-opacity="0" offset="100%"></stop>
        </linearGradient>
        <path id="path-12" d="M0.11125,2.6826125 L26.49,14.4995 L35.27625,11.8169 L8.89625,0 L0.11125,2.6826125 L0.11125,2.6826125 Z"></path>
        <linearGradient x1="31.0891511%" y1="29.2225594%" x2="77.1889663%" y2="79.8708576%" id="linearGradient-14">
            <stop stop-color="#FFFFFF" offset="0%"></stop>
            <stop stop-color="#DCDBDB" offset="89.6053%"></stop>
            <stop stop-color="#A5A3A4" offset="97.3556%"></stop>
            <stop stop-color="#9E9C9D" offset="100%"></stop>
        </linearGradient>
        <linearGradient x1="50%" y1="0%" x2="50%" y2="100%" id="linearGradient-15">
            <stop stop-color="#FADD87" offset="0%"></stop>
            <stop stop-color="#F4C36D" offset="31.9794324%"></stop>
            <stop stop-color="#ECA93E" offset="37.107382%"></stop>
            <stop stop-color="#DD8330" offset="100%"></stop>
        </linearGradient>
        <linearGradient x1="50%" y1="0%" x2="50%" y2="100%" id="linearGradient-16">
            <stop stop-color="#FFF9BA" offset="0%"></stop>
            <stop stop-color="#DE9957" offset="100%"></stop>
        </linearGradient>
        <filter x="-50%" y="-50%" width="200%" height="200%" filterUnits="objectBoundingBox" id="filter-17">
            <feOffset dx="0" dy="2" in="SourceAlpha" result="shadowOffsetOuter1"></feOffset>
            <feGaussianBlur stdDeviation="1" in="shadowOffsetOuter1" result="shadowBlurOuter1"></feGaussianBlur>
            <feColorMatrix values="0 0 0 0 0   0 0 0 0 0   0 0 0 0 0  0 0 0 0.35 0" in="shadowBlurOuter1" type="matrix" result="shadowMatrixOuter1"></feColorMatrix>
            <feMerge>
                <feMergeNode in="shadowMatrixOuter1"></feMergeNode>
                <feMergeNode in="SourceGraphic"></feMergeNode>
            </feMerge>
        </filter>
        <linearGradient x1="50%" y1="0%" x2="50%" y2="100%" id="linearGradient-18">
            <stop stop-color="#568EBD" offset="0%"></stop>
            <stop stop-color="#81BCE2" offset="100%"></stop>
        </linearGradient>
        <filter x="-50%" y="-50%" width="200%" height="200%" filterUnits="objectBoundingBox" id="filter-19">
            <feOffset dx="0" dy="3" in="SourceAlpha" result="shadowOffsetInner1"></feOffset>
            <feGaussianBlur stdDeviation="1.5" in="shadowOffsetInner1" result="shadowBlurInner1"></feGaussianBlur>
            <feComposite in="shadowBlurInner1" in2="SourceAlpha" operator="arithmetic" k2="-1" k3="1" result="shadowInnerInner1"></feComposite>
            <feColorMatrix values="0 0 0 0 0   0 0 0 0 0   0 0 0 0 0  0 0 0 0.35 0" in="shadowInnerInner1" type="matrix" result="shadowMatrixInner1"></feColorMatrix>
            <feMerge>
                <feMergeNode in="SourceGraphic"></feMergeNode>
                <feMergeNode in="shadowMatrixInner1"></feMergeNode>
            </feMerge>
        </filter>
    </defs>
    <g id="Page-1" stroke="none" stroke-width="1" fill="none" fill-rule="evenodd" sketch:type="MSPage">
        <g id="Logo" sketch:type="MSLayerGroup" transform="translate(0.000000, -1.000000)">
            <g id="Map-3" transform="translate(125.000000, 61.000000)" sketch:type="MSShapeGroup">
                <path d="M3.0133946,65.8805372 L30.1355387,3.51831161 L60.8921841,0.0397880072 L95.7995995,3.91640383 L128.785553,0.789065448 L155.895177,60.6096729 L105.619013,65.926827 L51.2480514,59.2857848 L3.0133946,65.8805372 Z" id="Path-358" stroke="#D0D0D0" stroke-width="3" fill="#FFFFFF"></path>
                <path d="M34.0123401,5.96241265 L22.362051,35.7063827 L51.7274962,31.5032685 L57.8770578,3.42079445 L34.0123401,5.96241265 Z" id="Path-360" fill="url(#linearGradient-1)"></path>
                <path d="M21.5167818,39.0677565 L13.3954747,58.6568608 L46.2887304,53.9323448 L50.8061667,35.3416181 L21.5167818,39.0677565 Z" id="Path-361" fill="url(#linearGradient-2)"></path>
                <path d="M62.6768295,2.97178058 L90.4273807,5.58222857 L89.2511144,12.6530122 L61.5575261,8.55839281 L62.6768295,2.97178058 Z" id="Path-362" fill="url(#linearGradient-3)"></path>
                <path d="M61.7165071,11.4428583 L57.9695117,31.3611779 L85.7046153,35.8323017 L88.6148686,16.5434671 L61.7165071,11.4428583 Z" id="Path-363" fill="url(#linearGradient-4)"></path>
                <path d="M57.4298131,35.8212439 L54.272399,53.4802679 L82.2668926,57.9511219 L84.7101795,39.632676 L57.4298131,35.8212439 Z" id="Path-364" fill="url(#linearGradient-5)"></path>
                <path d="M90.6318669,40.819094 L101.394113,41.8872689 L139.425117,37.3426762 L147.970177,57.5425974 L104.274594,61.1999582 L89.5549592,58.6317605 L90.6318669,40.819094 Z" id="Path-365" fill="#57772D"></path>
                <path d="M101.495346,41.8662669 C82.6497319,55.9461767 102.7915,60.7942197 102.7915,60.7942197 L104.234267,61.2197555 L148.078988,57.6491453 L139.919184,37.1712968 C139.919184,37.1712968 138.192085,37.4693857 101.495346,41.8662669 Z" id="Path-366" fill="url(#linearGradient-6)"></path>
                <path d="M93.6260026,17.5156655 L98.1889862,18.2717061 L131.451303,17.4885451 L138.134254,33.1710353 L100.869036,37.1936567 L91.6701138,36.2275519 L93.6260026,17.5156655 Z" id="Path-367" fill="url(#linearGradient-7)"></path>
                <path d="M94.3848126,14.2618549 L97.46658,14.2489778 L129.752616,14.3246799 L125.687672,3.91797337 L96.3427838,5.6952183 L94.5137919,5.83218459 L94.3848126,14.2618549 Z" id="Path-369" fill="url(#linearGradient-8)"></path>
                <path d="M101.388442,37.1047339 C101.388442,37.1047339 133.394335,33.729436 138.083945,33.1414417 C137.324373,31.2935657 136.824502,30.0942552 136.824502,30.0942552 C136.824502,30.0942552 135.603316,31.3793161 131.708498,32.2978551 C127.573578,33.4175514 126.488981,33.3025865 122.068119,32.356397 C118.253133,31.8690987 119.353308,31.769428 118.253133,29.6926046 C117.601104,28.8604193 117.277206,25.6048607 120.214695,23.6090465 C118.253134,20.3013961 112.69189,21.3316177 112.02764,22.238061 C102.04357,26.9838264 101.388442,37.1047339 101.388442,37.1047339 Z" id="Path-368" fill="url(#linearGradient-9)"></path>
                <path d="M51.2689941,59.5290806 L60.9555209,0.0428739933 L96.0382172,4.17809545 L104.91162,66.1434866 L51.2689941,59.5290806 Z" id="Path-359" fill-opacity="0.05" fill="#000000"></path>
                <path d="M0.782203269,67.5005789 L105.437439,67.1853093 L51.1391347,60.5562228 L0.782203269,67.5005789 Z" id="Path-370" fill="url(#linearGradient-10)"></path>
                <path d="M105.874435,67.1870587 L154.221333,66.5307239 L152.003933,62.2745802 L105.874435,67.1870587 Z" id="Path-371" fill="url(#linearGradient-11)"></path>
            </g>
            <g id="BGLogo">
                <g id="g10" transform="translate(290.000000, 43.337500) scale(1, -1) translate(-290.000000, -43.337500) translate(0.000000, 0.837500)">
                    <g id="g12">
                        <path d="M22.328625,48.632875 L22.328625,32.578125 C22.328625,25.73725 22.452125,21.395 22.700625,19.55225 C22.94875,17.709 23.61325,16.309625 24.694875,15.3525 C25.774875,14.396 27.910625,13.9175 31.101125,13.9175 C36.7715,13.9175 41.023875,15.370125 43.859875,18.276375 C46.694875,21.183125 48.11325,25.542 48.11325,31.355 C48.11325,37.309625 46.50925,41.695375 43.30225,44.51275 C40.09425,47.330125 34.45025,48.73875 26.369125,48.73875 C25.09325,48.73875 23.745625,48.703625 22.328625,48.632875 L22.328625,48.632875 Z M22.328625,51.23775 C23.214375,51.202125 23.959,51.185 24.5615,51.185 C32.21725,51.185 37.444375,52.388625 40.244625,54.79975 C43.044375,57.2095 44.445375,61.108375 44.445375,66.496625 C44.445375,70.2525 43.895,73.159125 42.796375,75.214875 C41.69825,77.2705 40.04975,78.856 37.8525,79.973125 C35.65475,81.089875 31.8985,81.648 26.582,81.648 C25.19975,81.648 23.78175,81.59425 22.328625,81.48775 L22.328625,51.23775 L22.328625,51.23775 Z M35.354,50.228 C43.541,49.6255 49.619125,47.586375 53.588875,44.11375 C57.558125,40.641125 59.5435,36.298875 59.5435,31.088875 C59.5435,26.55125 58.19575,22.644 55.502875,19.36625 C52.809125,16.087375 49.36275,13.944375 45.162625,12.933625 C40.962375,11.923825 35.336,11.4184625 28.28325,11.4184625 L0,11.4184625 L0,13.86325 L2.7641625,13.86325 C5.8476625,13.86325 7.9829125,14.253875 9.1704125,15.034125 C10.357425,15.813 11.111325,17.027875 11.430175,18.67525 C11.749025,20.32375 11.9086875,24.15875 11.9086875,30.1855 L11.9086875,65.2735 C11.9086875,71.121625 11.7402375,74.896 11.4038125,76.596625 C11.0664125,78.298375 10.357425,79.46775 9.27735,80.106 C8.1958,80.744625 5.8295875,81.063 2.1796875,81.063 L0.79785125,81.063 L0.79785125,83.50825 L12.653375,83.828125 L26.15675,84.252875 C45.861875,84.252875 55.715375,78.5815 55.715375,67.24025 C55.715375,62.5625 54.023,58.80475 50.638125,55.96925 C47.253375,53.13325 42.15875,51.21975 35.354,50.228 L35.354,50.228 Z" id="path14" fill="#464648" sketch:type="MSShapeGroup"></path>
                        <path d="M71.6645,78.9365 C71.6645,80.46 72.204625,81.771 73.286125,82.871125 C74.36675,83.96825 75.669375,84.519 77.193875,84.519 C78.71675,84.519 80.01125,83.96825 81.07475,82.871125 C82.138125,81.771 82.669375,80.46 82.669375,78.9365 C82.669375,77.3765 82.138125,76.047375 81.07475,74.94875 C80.01125,73.850125 78.71675,73.30075 77.193875,73.30075 C75.669375,73.30075 74.36675,73.850125 73.286125,74.94875 C72.204625,76.047375 71.6645,77.3765 71.6645,78.9365 L71.6645,78.9365 Z M81.92475,56.713875 L81.92475,26.357375 C81.92475,21.713875 81.996125,18.79 82.138125,17.5855 C82.27875,16.380875 82.793,15.459 83.67975,14.820375 C84.565,14.183625 86.142625,13.86325 88.411125,13.86325 L89.527875,13.86325 L89.527875,11.4184625 L66.082,11.4184625 L66.082,13.86325 L67.890125,13.86325 C70.40575,13.86325 72.045375,14.227 72.807625,14.953625 C73.569375,15.67975 74.01175,16.548875 74.13625,17.558625 C74.26025,18.569375 74.32225,21.5015 74.32225,26.357375 L74.32225,39.5425 C74.32225,44.646 74.0835,47.763625 73.605,48.898875 C73.127,50.03275 72.48825,50.74125 71.691375,51.025375 C70.8935,51.308625 69.5025,51.45025 67.517625,51.45025 L66.082,51.45025 L66.082,53.8965 C72.390625,54.53375 77.28175,55.472125 80.755875,56.713875 L81.92475,56.713875 L81.92475,56.713875 Z" id="path16" fill="#464648" sketch:type="MSShapeGroup"></path>
                        <path d="M108.294375,84.519 L108.294375,26.357375 C108.294375,21.713875 108.356,18.79 108.4805,17.5855 C108.604,16.380875 109.109375,15.459 109.995625,14.820375 C110.881375,14.183625 112.4585,13.86325 114.727,13.86325 L116.003375,13.86325 L116.003375,11.4184625 L92.71725,11.4184625 L92.71725,13.86325 L94.206,13.86325 C96.3325,13.86325 97.847625,14.15675 98.7515,14.74125 C99.65525,15.325625 100.195375,16.149875 100.373,17.212875 C100.54975,18.276375 100.639125,21.32475 100.639125,26.357375 L100.639125,69.419875 C100.639125,73.99175 100.231,76.871125 99.416,78.059125 C98.600625,79.246625 96.61575,79.839875 93.461875,79.839875 L93.461875,82.286125 C95.623,82.286125 98.1665,82.53275 101.090875,83.02975 C104.014625,83.525375 106.025875,84.022 107.1245,84.519 L108.294375,84.519" id="path18" fill="#464648" sketch:type="MSShapeGroup"></path>
                        <path d="M134.39875,84.519 L134.39875,26.357375 C134.39875,21.713875 134.45875,18.79 134.58375,17.5855 C134.7075,16.380875 135.2125,15.459 136.09875,14.820375 C136.985,14.183625 138.5625,13.86325 140.83125,13.86325 L142.1075,13.86325 L142.1075,11.4184625 L118.82075,11.4184625 L118.82075,13.86325 L120.309625,13.86325 C122.436,13.86325 123.951125,14.15675 124.855,14.74125 C125.75875,15.325625 126.29875,16.149875 126.47625,17.212875 C126.65375,18.276375 126.7425,21.32475 126.7425,26.357375 L126.7425,69.419875 C126.7425,73.99175 126.33375,76.871125 125.52,78.059125 C124.704125,79.246625 122.71925,79.839875 119.565375,79.839875 L119.565375,82.286125 C121.726625,82.286125 124.27,82.53275 127.19375,83.02975 C130.11875,83.525375 132.13,84.022 133.22875,84.519 L134.39875,84.519" id="path20" fill="#464648" sketch:type="MSShapeGroup"></path>
                        <path d="M151.09125,78.9365 C151.09125,80.46 151.63125,81.771 152.7125,82.871125 C153.79375,83.96825 155.09625,84.519 156.62,84.519 C158.14375,84.519 159.4375,83.96825 160.50125,82.871125 C161.565,81.771 162.09625,80.46 162.09625,78.9365 C162.09625,77.3765 161.565,76.047375 160.50125,74.94875 C159.4375,73.850125 158.14375,73.30075 156.62,73.30075 C155.09625,73.30075 153.79375,73.850125 152.7125,74.94875 C151.63125,76.047375 151.09125,77.3765 151.09125,78.9365 L151.09125,78.9365 Z M161.3525,56.713875 L161.3525,26.357375 C161.3525,21.713875 161.4225,18.79 161.565,17.5855 C161.70625,16.380875 162.22,15.459 163.10625,14.820375 C163.99125,14.183625 165.57,13.86325 167.83875,13.86325 L168.955,13.86325 L168.955,11.4184625 L145.50875,11.4184625 L145.50875,13.86325 L147.3175,13.86325 C149.8325,13.86325 151.4725,14.227 152.235,14.953625 C152.99625,15.67975 153.43875,16.548875 153.56375,17.558625 C153.6875,18.569375 153.75,21.5015 153.75,26.357375 L153.75,39.5425 C153.75,44.646 153.51,47.763625 153.03125,48.898875 C152.55375,50.03275 151.915,50.74125 151.11875,51.025375 C150.32,51.308625 148.93,51.45025 146.945,51.45025 L145.50875,51.45025 L145.50875,53.8965 C151.8175,54.53375 156.70875,55.472125 160.1825,56.713875 L161.3525,56.713875 L161.3525,56.713875 Z" id="path22" fill="#464648" sketch:type="MSShapeGroup"></path>
                        <path d="M240.46,56.713875 L241.895,56.713875 C242.71,54.516625 243.17125,51.521 243.2775,47.7295 C245.83,50.74125 248.505,52.99175 251.305,54.481 C254.105,55.96925 257.02875,56.713875 260.0775,56.713875 C263.55,56.713875 266.395,55.98725 268.61,54.53375 C270.825,53.081 272.25125,51.29975 272.89,49.191875 C273.5275,47.0825 273.84625,44.007375 273.84625,39.96675 L273.84625,26.357375 C273.84625,21.32475 273.93375,18.257875 274.1125,17.160625 C274.29,16.0605 274.8475,15.236875 275.7875,14.6875 C276.725,14.138125 278.45375,13.86325 280.97,13.86325 L280.97,11.4184625 L258.695,11.4184625 L258.695,13.86325 L259.705,13.86325 C262.2575,13.86325 263.9225,14.235875 264.7025,14.9805 C265.48125,15.725125 265.925,16.59275 266.03125,17.5855 C266.1375,18.578125 266.19125,21.5015 266.19125,26.357375 L266.19125,40.393125 C266.19125,43.830625 266.0225,46.284125 265.68625,47.756375 C265.34875,49.226125 264.445,50.528375 262.975,51.663625 C261.50375,52.797875 259.63375,53.36425 257.36625,53.36425 C254.77875,53.36425 252.30625,52.59425 249.94875,51.05225 C247.5925,49.51075 245.3675,47.19725 243.2775,44.11375 L243.2775,26.357375 C243.2775,21.32475 243.375,18.257875 243.57,17.160625 C243.76375,16.0605 244.33125,15.236875 245.27125,14.6875 C246.21,14.138125 247.95625,13.86325 250.5075,13.86325 L250.5075,11.4184625 L228.4975,11.4184625 L228.4975,13.86325 C230.94375,13.86325 232.645,14.111375 233.60125,14.607875 C234.55875,15.1035 235.15125,15.857875 235.3825,16.867625 C235.6125,17.878375 235.72875,21.041 235.72875,26.357375 L235.72875,39.329625 C235.72875,44.397 235.63,47.471625 235.43625,48.55375 C235.24,49.63375 234.67375,50.44925 233.735,50.9985 C232.795,51.547875 231.05,51.82225 228.4975,51.82225 L228.4975,54.2685 C232.39625,54.693875 236.38375,55.50875 240.46,56.713875" id="path26" fill="#464648" sketch:type="MSShapeGroup"></path>
                        <path d="M333.55,42.19975 L364.65,42.19975 L364.65,39.6485 C361.2125,39.6485 358.8825,39.30325 357.65875,38.611875 C356.43625,37.920875 355.63,36.7685 355.24,35.15625 C354.85,33.5425 354.65625,29.63475 354.65625,23.434125 L354.65625,15.777875 C353.805,15.919 353.0425,15.99025 352.37,15.99025 C349.64,15.99025 346.06125,15.15775 341.63125,13.49225 C335.605,11.2246125 330.0225,10.08935 324.88375,10.08935 C314.57,10.08935 305.9925,13.482375 299.1525,20.2695 C292.3125,27.056625 288.8925,35.661625 288.8925,46.0815 C288.8925,56.395 292.1525,65.433625 298.67375,73.194375 C305.195,80.957 314.05625,84.837375 325.25625,84.837375 C334.89625,84.837375 342.87125,81.2925 349.18,74.205125 C350.35,76.6855 351.09375,79.361375 351.4125,82.232375 L353.965,82.232375 L353.965,58.149375 L351.4125,58.149375 C350.385,65.556625 347.57625,71.422375 342.98625,75.747125 C338.39625,80.07075 332.8225,82.232375 326.26625,82.232375 C319.49625,82.232375 313.595,79.715375 308.5625,74.683625 C303.53,69.649375 301.01375,60.71925 301.01375,47.889125 C301.01375,35.09425 303.44,26.02875 308.2975,20.69575 C313.1525,15.361375 319.1775,12.694375 326.3725,12.694375 C330.05875,12.694375 333.4075,13.44725 336.42,14.953625 C339.4325,16.46 341.48875,18.2935 342.5875,20.4565 C343.68625,22.61725 344.23625,25.347625 344.23625,28.6435 C344.23625,32.506375 343.97875,35.0845 343.465,36.379375 C342.95,37.672375 342.1625,38.54 341.09875,38.984375 C340.035,39.42625 338.08625,39.6485 335.25125,39.6485 L333.55,39.6485 L333.55,42.19975" id="path28" fill="#464648" sketch:type="MSShapeGroup"></path>
                        <path d="M435.755,38.0005 L429.96,35.661625 C420.815,31.9395 416.24375,27.26075 416.24375,21.626 C416.24375,19.393125 416.82875,17.59425 417.9975,16.2295 C419.1675,14.86475 420.69125,14.183625 422.57,14.183625 C424.235,14.183625 426.1675,14.7315 428.365,15.831 C430.5625,16.92875 433.025,18.578125 435.755,20.774875 L435.755,38.0005 L435.755,38.0005 Z M451.1725,19.393125 L453.13875,19.393125 C452.82,13.3325 449.84375,10.301275 444.2075,10.301275 C441.7975,10.301275 439.8925,10.9399375 438.4925,12.2153375 C437.0925,13.49225 436.18,15.38725 435.755,17.90375 C432.21,15.38725 428.97625,13.49225 426.0525,12.2153375 C423.1275,10.9399375 420.51375,10.301275 418.21,10.301275 C415.26875,10.301275 412.735,11.15235 410.6075,12.854 C408.48125,14.555625 407.41875,16.805125 407.41875,19.606 C407.41875,23.255875 409.19875,26.445375 412.76125,29.17475 C416.32375,31.90425 421.24125,34.5615 427.51375,37.149375 L435.755,40.499 L435.755,42.626 C435.755,45.63725 435.56,47.817375 435.17,49.165 C434.78,50.51175 433.77,51.71625 432.13875,52.77925 C430.50875,53.84275 428.365,54.375 425.70625,54.375 C420.39,54.375 417.43,52.6025 416.82875,49.059125 C416.26125,45.443375 414.7725,43.63525 412.3625,43.63525 C410.2,43.63525 409.11875,44.663125 409.11875,46.71875 C409.11875,48.73875 410.555,50.909125 413.42625,53.231 C416.29625,55.55325 420.7625,56.713875 426.8225,56.713875 C431.32375,56.713875 434.815,56.004375 437.29625,54.587375 C439.77625,53.169 441.41625,51.557625 442.21375,49.75 C443.01125,47.941875 443.41,45.17725 443.41,41.456 L443.41,23.858375 C443.41,19.747125 443.6225,17.106875 444.04875,15.9375 C444.47375,14.768125 445.395,14.183625 446.8125,14.183625 C449.15125,14.183625 450.605,15.919 451.1725,19.393125 L451.1725,19.393125 Z" id="path30" fill="#464648" sketch:type="MSShapeGroup"></path>
                        <path d="M477.54125,9.6640625 L474.4575,9.6640625 L458.9875,44.59225 C457.46375,47.959 456.2575,50.1035 455.3725,51.025375 C454.48625,51.94675 453.03375,52.442875 451.01375,52.514625 L451.01375,54.96 L470.68375,54.96 L470.68375,52.514625 C468.52125,52.514625 467.0425,52.336375 466.245,51.982375 C465.44625,51.627 465.04875,50.954625 465.04875,49.961875 C465.04875,49.182125 465.75625,47.285125 467.175,44.2735 L478.92375,17.851625 L489.50375,41.402875 C491.17,45.15875 492.0025,47.605 492.0025,48.73875 C492.0025,51.11325 490.23,52.371625 486.68625,52.514625 L486.68625,54.96 L501.35875,54.96 L501.35875,52.514625 C499.55125,52.40725 498.03625,51.65375 496.81375,50.255375 C495.59125,48.8535 493.88,45.7095 491.68375,40.817875 L477.54125,9.6640625" id="path32" fill="#464648" sketch:type="MSShapeGroup"></path>
                        <path d="M533.15125,42.359875 C533.2575,43.17475 533.31,43.901375 533.31,44.5395 C533.31,47.65775 532.3975,50.076625 530.5725,51.796875 C528.7475,53.515625 526.50625,54.375 523.8475,54.375 C517.39625,54.375 513.55125,50.368625 512.31125,42.359875 L533.15125,42.359875 L533.15125,42.359875 Z M542.455,40.232875 L512.09875,40.232875 C511.95625,38.142125 511.885,36.582 511.885,35.555125 C511.885,27.898875 513.08125,22.1485 515.47375,18.30325 C517.86625,14.4565 521.43625,12.535125 526.18625,12.535125 C532.63625,12.535125 537.20875,15.423375 539.9025,21.201125 L542.455,21.201125 C541.32,17.5855 539.07,14.75825 535.70375,12.72075 C532.335,10.6836 528.6675,9.6640625 524.6975,9.6640625 C521.01125,9.6640625 517.52875,10.594725 514.25125,12.4545875 C510.9725,14.316375 508.2875,16.94675 506.1975,20.350625 C504.105,23.7525 503.06,27.880875 503.06,32.736875 C503.06,39.61275 505.08,45.328625 509.12125,49.882875 C513.16125,54.436 518.21125,56.713875 524.2725,56.713875 C529.97875,56.713875 534.39125,54.976625 537.51,51.503875 C540.62875,48.02975 542.27625,44.2735 542.455,40.232875 L542.455,40.232875 Z" id="path34" fill="#464648" sketch:type="MSShapeGroup"></path>
                        <path d="M551.015,10.036625 L551.015,24.336875 L553.0875,24.336875 C555.4975,16.079125 559.80375,11.9506875 566.00625,11.9506875 C568.69875,11.9506875 570.71125,12.764625 572.04,14.396 C573.37,16.025375 574.03375,17.815875 574.03375,19.765625 C574.03375,22.03275 573.325,23.894 571.9075,25.347625 C570.45375,26.80025 567.63625,28.55475 563.455,30.610375 C559.06,32.7725 555.905,34.8985 553.99125,36.98975 C552.0775,39.045375 551.12,41.579625 551.12,44.59225 C551.12,47.463375 552.1475,50.201125 554.20375,52.806125 C556.25875,55.411625 559.1475,56.713875 562.87,56.713875 C566.6625,56.713875 569.79875,55.172375 572.28,52.088875 C572.81125,52.621125 573.5025,53.913625 574.3525,55.96925 L576.32,55.96925 L576.32,42.5195 L574.3525,42.5195 C573.64375,45.743125 572.27,48.518125 570.23375,50.839875 C568.195,53.160125 565.79375,54.32125 563.02875,54.32125 C560.9025,54.32125 559.18375,53.6655 557.8725,52.355 C556.56125,51.0425 555.905,49.519 555.905,47.78225 C555.905,45.869125 556.63125,44.22025 558.085,42.837875 C559.5025,41.419375 562.21375,39.808625 566.21875,38.0005 C572.24375,35.271 575.93,32.61225 577.2775,30.025375 C578.62375,27.402375 579.2975,24.88675 579.2975,22.476625 C579.2975,18.684125 578.0475,15.600625 575.54875,13.226125 C573.05,10.85205 569.905,9.6640625 566.1125,9.6640625 C562.1075,9.6640625 558.545,11.3125 555.42625,14.607875 C554.47,13.544875 553.69,12.020025 553.0875,10.036625 L551.015,10.036625" id="path36" fill="#464648" sketch:type="MSShapeGroup"></path>
                        <path d="M379.90125,49.99025 C379.90125,49.99025 390.985,59.044 403.69125,52.225625 C403.69125,52.225625 404.3,52.505375 403.96125,52.672875 C403.62375,52.840375 399.93875,56.434625 393.51875,56.713875 C387.0975,56.993125 378.14375,56.4175 370.30375,50.4375 L379.90125,49.99025" id="path38" fill="#464648" sketch:type="MSShapeGroup"></path>
                        <path d="M371.115,14.4995 L370.30375,49.305625 L379.90125,48.858875 L379.90125,11.8169" id="path40" fill="#464648" sketch:type="MSShapeGroup"></path>
                        <g id="g42" transform="translate(344.625000, 0.000000)">
                            <g id="g44-Clipped">
                                <mask id="mask-13" sketch:name="path48" fill="white">
                                    <use xlink:href="#path-12"></use>
                                </mask>
                                <g id="path48"></g>
                                <g id="g44" mask="url(#mask-13)" fill="url(#linearGradient-14)" sketch:type="MSShapeGroup">
                                    <path d="M0.11125,2.6826125 L26.49,14.4995 L35.27625,11.8169 L8.89625,0 L0.11125,2.6826125" id="path60"></path>
                                </g>
                            </g>
                        </g>
                    </g>
                </g>
            </g>
            <g id="YellowMarkerLarge" transform="translate(171.000000, 25.000000)" sketch:type="MSShapeGroup">
                <path d="M19.1993128,53.4852621 C22.0658569,64.2337799 24.174139,72.8154421 27,80.5449193 C30.4084311,70.3393183 32.0441895,63.3423723 35.4927554,53.2638782 C46.2436059,49.661983 54,39.4082906 54,27.3214286 C54,12.2322202 41.9116882,0 27,0 C12.0883118,0 0,12.2322202 0,27.3214286 C0,39.6661331 8.09084979,50.0986217 19.1993128,53.4852621 Z M27.2410595,43.3733385 C35.7353961,43.3733385 42.6214164,36.4053417 42.6214164,27.8098821 C42.6214164,19.2144224 35.7353961,12.2464256 27.2410595,12.2464256 C18.7467229,12.2464256 11.8607025,19.2144224 11.8607025,27.8098821 C11.8607025,36.4053417 18.7467229,43.3733385 27.2410595,43.3733385 Z" id="Oval-3" stroke="url(#linearGradient-16)" stroke-width="2" fill="url(#linearGradient-15)" filter="url(#filter-17)"></path>
                <path d="M27.2410595,43.3733385 C35.7353961,43.3733385 42.6214164,36.4053417 42.6214164,27.8098821 C42.6214164,19.2144224 35.7353961,12.2464256 27.2410595,12.2464256 C18.7467229,12.2464256 11.8607025,19.2144224 11.8607025,27.8098821 C11.8607025,36.4053417 18.7467229,43.3733385 27.2410595,43.3733385 Z" id="Oval-4" stroke="url(#linearGradient-18)" stroke-width="3" fill-opacity="0.303442029" fill="#FFFFFF" filter="url(#filter-19)"></path>
            </g>
        </g>
    </g>
</svg>