<?xml version="1.0" standalone="no"?><!DOCTYPE svg PUBLIC "-//W3C//DTD SVG 1.1//EN" "http://www.w3.org/Graphics/SVG/1.1/DTD/svg11.dtd"><svg class="icon" height="512" viewBox="0 0 1024 1024" version="1.1" xmlns="http://www.w3.org/2000/svg"><path d="M0 0h1024v1024H0z" fill="#98DDED" /><path d="M0 163.566956V0h52.967007l704.901865 704.815459L649.60189 813.08244 0 163.566956z" fill="#FFFFFF" /><path d="M1024 399.369505v216.533963l-408.096532 408.096532H399.369505l624.630495-624.630495z" fill="#FFFFFF" /><path d="M1024 1024H615.903468l408.096532-408.096532v408.096532z" fill="#7FCC83" /><path d="M44.326386 0h979.673614v399.369505L738.168256 685.201249 44.326386 0z" fill="#F3F3F3" /><path d="M517.14117 781.544173a139.200405 38.364357 0 1 0 278.40081 0 139.200405 38.364357 0 1 0-278.40081 0Z" fill="#C4C4C4" /><path d="M651.070796 210.91756A181.453042 181.453042 0 0 0 476.271032 380.187326c-3.456248 55.386381 21.687959 102.564172 54.608725 141.101342 43.203105 50.720446 84.850899 110.772762 98.330267 179.292886l16.762805 84.764493a10.627964 10.627964 0 0 0 20.737491 0L682.609063 701.704835c13.392963-67.915281 53.658257-128.918066 96.515737-178.688043 31.451861-36.549827 57.200911-79.752932 57.200911-131.769471a180.416167 180.416167 0 0 0-185.254915-180.329761z m5.616403 253.170196a74.136529 74.136529 0 1 1 74.136529-74.136528A74.136529 74.136529 0 0 1 656.687199 464.087756z" fill="#E85352" /></svg>